<?xml version="1.0" standalone="no"?>
<!DOCTYPE svg PUBLIC "-//W3C//DTD SVG 20010904//EN"
 "http://www.w3.org/TR/2001/REC-SVG-20010904/DTD/svg10.dtd">
<svg version="1.0" xmlns="http://www.w3.org/2000/svg"
 width="656.000000pt" height="656.000000pt" viewBox="0 0 656.000000 656.000000"
 preserveAspectRatio="xMidYMid meet">
<metadata>
Created by potrace 1.14, written by Peter Selinger 2001-2017
</metadata>
<g transform="translate(0.000000,656.000000) scale(0.100000,-0.100000)"
fill="#000000" stroke="none">
<path d="M2608 5769 c-284 -46 -543 -287 -594 -553 -2 -12 -7 -32 -10 -46 -4
-14 -8 -641 -9 -1395 l-3 -1370 -21 -55 c-38 -97 -87 -134 -188 -139 -77 -4
-129 16 -167 63 -41 51 -56 105 -61 209 -8 174 -43 290 -128 417 -41 63 -164
178 -231 219 -56 34 -162 76 -213 86 -202 37 -374 14 -531 -71 -72 -39 -68
-36 -144 -105 -94 -84 -174 -202 -203 -299 -1 -3 -7 -23 -14 -45 -32 -103 -34
-271 -6 -515 2 -14 4 -25 5 -25 1 0 3 -11 5 -25 8 -58 50 -212 83 -300 3 -8 6
-17 7 -20 24 -71 101 -216 165 -311 72 -107 69 -103 201 -237 258 -262 575
-415 974 -469 71 -9 419 -10 489 0 109 15 132 18 148 23 9 3 25 6 35 8 183 36
430 145 588 259 79 57 186 146 198 164 13 21 22 15 45 -29 45 -88 112 -168
191 -228 18 -14 38 -30 44 -35 7 -6 35 -21 62 -35 28 -14 52 -27 55 -30 3 -3
12 -7 20 -9 8 -2 44 -12 80 -23 205 -59 472 -15 633 106 96 72 192 184 236
276 71 144 78 201 78 616 l1 359 148 2 c164 1 365 10 404 18 14 2 41 7 60 9
104 15 263 58 374 103 278 110 500 270 685 493 59 70 161 222 161 238 0 6 3
12 8 14 9 4 73 133 107 218 38 95 80 255 101 385 17 108 23 343 11 485 -6 74
-8 86 -27 185 -6 28 -11 60 -13 72 -2 12 -6 26 -10 29 -4 4 -7 16 -7 26 0 35
-61 201 -112 308 -59 123 -130 239 -200 330 -70 89 -257 274 -321 315 -8 6
-41 27 -72 48 -172 118 -476 240 -652 263 -20 2 -50 7 -67 10 -17 3 -44 8 -61
11 -16 3 -323 7 -680 8 -693 4 -727 2 -854 -45 -57 -22 -95 -42 -164 -88 l-37
-25 -53 35 c-125 82 -243 119 -397 122 -58 2 -126 0 -152 -5z m2246 -1473
c126 -61 191 -222 162 -401 -18 -115 -113 -211 -226 -229 -47 -7 -350 -9 -357
-2 -4 4 -8 621 -4 658 1 3 83 5 184 4 178 -2 185 -3 241 -30z"/>
</g>
</svg>
