<svg width="164" height="127" viewBox="0 0 164 127" fill="none" xmlns="http://www.w3.org/2000/svg">
<mask id="path-1-outside-1_1_7" maskUnits="userSpaceOnUse" x="0.809525" y="1" width="162" height="126" fill="black">
<rect fill="white" x="0.809525" y="1" width="162" height="126"/>
<path d="M44.2895 114.28C38.3162 114.28 32.9829 113 28.2895 110.44C23.6815 107.795 20.0549 104.168 17.4095 99.56C14.8495 94.8667 13.5695 89.5333 13.5695 83.56C13.5695 81.5973 14.2095 80.0187 15.4895 78.824C16.7695 77.544 18.3482 76.904 20.2255 76.904C22.1882 76.904 23.7669 77.544 24.9615 78.824C26.2415 80.0187 26.8815 81.5973 26.8815 83.56C26.8815 87.2293 27.6069 90.472 29.0575 93.288C30.5935 96.104 32.6415 98.3227 35.2015 99.944C37.8469 101.48 40.8762 102.248 44.2895 102.248C47.7029 102.248 50.7322 101.48 53.3775 99.944C56.0229 98.3227 58.0709 96.104 59.5215 93.288C61.0575 90.472 61.8255 87.2293 61.8255 83.56V19.688C61.8255 17.7253 62.4229 16.1467 63.6175 14.952C64.8975 13.672 66.4762 13.032 68.3535 13.032C70.3162 13.032 71.9375 13.672 73.2175 14.952C74.4975 16.1467 75.1375 17.7253 75.1375 19.688V83.56C75.1375 89.5333 73.8149 94.8667 71.1695 99.56C68.5242 104.168 64.8975 107.795 60.2895 110.44C55.6815 113 50.3482 114.28 44.2895 114.28ZM92.0305 113C90.1532 113 88.5745 112.36 87.2945 111.08C86.0145 109.8 85.3745 108.221 85.3745 106.344V19.688C85.3745 17.7253 86.0145 16.1467 87.2945 14.952C88.5745 13.672 90.1532 13.032 92.0305 13.032H117.631C124.031 13.032 129.705 14.44 134.655 17.256C139.604 20.072 143.444 23.9973 146.175 29.032C148.991 33.9813 150.399 39.6987 150.399 46.184C150.399 52.4133 148.991 57.96 146.175 62.824C143.444 67.688 139.604 71.4853 134.655 74.216C129.705 76.9467 124.031 78.312 117.631 78.312H98.6865V106.344C98.6865 108.221 98.0465 109.8 96.7665 111.08C95.5719 112.36 93.9932 113 92.0305 113ZM98.6865 66.024H117.631C121.556 66.024 125.012 65.1707 127.999 63.464C130.985 61.7573 133.332 59.4107 135.039 56.424C136.745 53.4373 137.599 50.024 137.599 46.184C137.599 42.088 136.745 38.504 135.039 35.432C133.332 32.2747 130.985 29.8 127.999 28.008C125.012 26.216 121.556 25.32 117.631 25.32H98.6865V66.024Z"/>
</mask>
<path d="M44.2895 114.28C38.3162 114.28 32.9829 113 28.2895 110.44C23.6815 107.795 20.0549 104.168 17.4095 99.56C14.8495 94.8667 13.5695 89.5333 13.5695 83.56C13.5695 81.5973 14.2095 80.0187 15.4895 78.824C16.7695 77.544 18.3482 76.904 20.2255 76.904C22.1882 76.904 23.7669 77.544 24.9615 78.824C26.2415 80.0187 26.8815 81.5973 26.8815 83.56C26.8815 87.2293 27.6069 90.472 29.0575 93.288C30.5935 96.104 32.6415 98.3227 35.2015 99.944C37.8469 101.48 40.8762 102.248 44.2895 102.248C47.7029 102.248 50.7322 101.48 53.3775 99.944C56.0229 98.3227 58.0709 96.104 59.5215 93.288C61.0575 90.472 61.8255 87.2293 61.8255 83.56V19.688C61.8255 17.7253 62.4229 16.1467 63.6175 14.952C64.8975 13.672 66.4762 13.032 68.3535 13.032C70.3162 13.032 71.9375 13.672 73.2175 14.952C74.4975 16.1467 75.1375 17.7253 75.1375 19.688V83.56C75.1375 89.5333 73.8149 94.8667 71.1695 99.56C68.5242 104.168 64.8975 107.795 60.2895 110.44C55.6815 113 50.3482 114.28 44.2895 114.28ZM92.0305 113C90.1532 113 88.5745 112.36 87.2945 111.08C86.0145 109.8 85.3745 108.221 85.3745 106.344V19.688C85.3745 17.7253 86.0145 16.1467 87.2945 14.952C88.5745 13.672 90.1532 13.032 92.0305 13.032H117.631C124.031 13.032 129.705 14.44 134.655 17.256C139.604 20.072 143.444 23.9973 146.175 29.032C148.991 33.9813 150.399 39.6987 150.399 46.184C150.399 52.4133 148.991 57.96 146.175 62.824C143.444 67.688 139.604 71.4853 134.655 74.216C129.705 76.9467 124.031 78.312 117.631 78.312H98.6865V106.344C98.6865 108.221 98.0465 109.8 96.7665 111.08C95.5719 112.36 93.9932 113 92.0305 113ZM98.6865 66.024H117.631C121.556 66.024 125.012 65.1707 127.999 63.464C130.985 61.7573 133.332 59.4107 135.039 56.424C136.745 53.4373 137.599 50.024 137.599 46.184C137.599 42.088 136.745 38.504 135.039 35.432C133.332 32.2747 130.985 29.8 127.999 28.008C125.012 26.216 121.556 25.32 117.631 25.32H98.6865V66.024Z" fill="#06A68C"/>
<path d="M28.2895 110.44L22.3151 120.847L22.4285 120.912L22.5433 120.975L28.2895 110.44ZM17.4095 99.56L6.87478 105.306L6.93739 105.421L7.00249 105.534L17.4095 99.56ZM15.4895 78.824L23.6773 87.5967L23.8285 87.4555L23.9748 87.3093L15.4895 78.824ZM24.9615 78.824L16.1889 87.0118L16.4712 87.3143L16.7737 87.5967L24.9615 78.824ZM29.0575 93.288L18.3898 98.7835L18.4548 98.9096L18.5228 99.0342L29.0575 93.288ZM35.2015 99.944L28.7809 110.082L28.9761 110.205L29.1759 110.321L35.2015 99.944ZM53.3775 99.944L59.4032 110.321L59.5266 110.25L59.6483 110.175L53.3775 99.944ZM59.5215 93.288L48.9868 87.5418L48.9188 87.6664L48.8538 87.7925L59.5215 93.288ZM63.6175 14.952L55.1323 6.46671L55.1322 6.46671L63.6175 14.952ZM73.2175 14.952L64.7323 23.4373L64.8785 23.5835L65.0297 23.7247L73.2175 14.952ZM71.1695 99.56L81.5766 105.534L81.6001 105.493L81.6234 105.452L71.1695 99.56ZM60.2895 110.44L66.1172 120.93L66.1909 120.889L66.2639 120.847L60.2895 110.44ZM44.2895 102.28C40.0843 102.28 36.7673 101.395 34.0358 99.9053L22.5433 120.975C29.1984 124.605 36.5481 126.28 44.2895 126.28V102.28ZM34.2639 100.033C31.5001 98.4463 29.4032 96.3494 27.8166 93.5856L7.00249 105.534C10.7065 111.987 15.8629 117.143 22.3151 120.847L34.2639 100.033ZM27.9443 93.8138C26.4543 91.0822 25.5695 87.7652 25.5695 83.56H1.56952C1.56952 91.3014 3.24471 98.6511 6.87478 105.306L27.9443 93.8138ZM25.5695 83.56C25.5695 83.8914 25.5125 84.5687 25.1704 85.4125C24.816 86.2867 24.277 87.037 23.6773 87.5967L7.30171 70.0513C3.28314 73.802 1.56952 78.7157 1.56952 83.56H25.5695ZM23.9748 87.3093C23.5512 87.7329 22.9331 88.1842 22.142 88.5049C21.3596 88.8221 20.6742 88.904 20.2255 88.904V64.904C15.2974 64.904 10.6262 66.7168 7.00425 70.3387L23.9748 87.3093ZM20.2255 88.904C19.8941 88.904 19.2168 88.8469 18.3731 88.5049C17.4988 88.1505 16.7485 87.6115 16.1889 87.0118L33.7342 70.6362C29.9835 66.6176 25.0699 64.904 20.2255 64.904V88.904ZM16.7737 87.5967C16.1741 87.037 15.6351 86.2867 15.2807 85.4125C14.9386 84.5687 14.8815 83.8914 14.8815 83.56H38.8815C38.8815 78.7157 37.1679 73.802 33.1493 70.0513L16.7737 87.5967ZM14.8815 83.56C14.8815 88.8376 15.9345 94.0172 18.3898 98.7835L39.7252 87.7925C39.2792 86.9268 38.8815 85.6211 38.8815 83.56H14.8815ZM18.5228 99.0342C20.9758 103.531 24.3974 107.306 28.7809 110.082L41.6222 89.8062C40.8857 89.3397 40.2113 88.6767 39.5923 87.5418L18.5228 99.0342ZM29.1759 110.321C33.857 113.04 39.0107 114.248 44.2895 114.248V90.248C42.7417 90.248 41.8367 89.9205 41.2272 89.5665L29.1759 110.321ZM44.2895 114.248C49.5684 114.248 54.722 113.04 59.4032 110.321L47.3519 89.5665C46.7423 89.9205 45.8374 90.248 44.2895 90.248V114.248ZM59.6483 110.175C64.2056 107.382 67.7557 103.507 70.1892 98.7835L48.8538 87.7925C48.386 88.7006 47.8401 89.2633 47.1068 89.7128L59.6483 110.175ZM70.0563 99.0342C72.6845 94.2158 73.8255 88.9451 73.8255 83.56H49.8255C49.8255 85.5136 49.4305 86.7282 48.9868 87.5418L70.0563 99.0342ZM73.8255 83.56V19.688H49.8255V83.56H73.8255ZM73.8255 19.688C73.8255 19.9253 73.788 20.5096 73.497 21.2787C73.193 22.0819 72.7071 22.833 72.1028 23.4373L55.1322 6.46671C51.3221 10.2768 49.8255 15.099 49.8255 19.688H73.8255ZM72.1028 23.4373C71.6792 23.8609 71.0611 24.3121 70.27 24.6329C69.4876 24.9501 68.8022 25.032 68.3535 25.032V1.032C63.4254 1.032 58.7542 2.84477 55.1323 6.46671L72.1028 23.4373ZM68.3535 25.032C68.0156 25.032 67.3935 24.9731 66.6355 24.6739C65.8585 24.3671 65.2086 23.9137 64.7323 23.4373L81.7028 6.46671C77.9715 2.73545 73.2031 1.032 68.3535 1.032V25.032ZM65.0297 23.7247C64.4301 23.165 63.8911 22.4147 63.5367 21.5405C63.1946 20.6967 63.1375 20.0194 63.1375 19.688H87.1375C87.1375 14.8437 85.4239 9.93 81.4054 6.17934L65.0297 23.7247ZM63.1375 19.688V83.56H87.1375V19.688H63.1375ZM63.1375 83.56C63.1375 87.6986 62.2403 90.9628 60.7157 93.6678L81.6234 105.452C85.3894 98.7705 87.1375 91.3681 87.1375 83.56H63.1375ZM60.7625 93.5856C59.1759 96.3494 57.0789 98.4463 54.3151 100.033L66.2639 120.847C72.7161 117.143 77.8725 111.987 81.5766 105.534L60.7625 93.5856ZM54.4618 99.9501C51.8876 101.38 48.6168 102.28 44.2895 102.28V126.28C52.0796 126.28 59.4755 124.62 66.1172 120.93L54.4618 99.9501ZM87.2945 111.08L78.8092 119.565L78.8092 119.565L87.2945 111.08ZM87.2945 14.952L95.4823 23.7247L95.6335 23.5835L95.7798 23.4373L87.2945 14.952ZM134.655 17.256L128.72 27.686L128.72 27.686L134.655 17.256ZM146.175 29.032L135.626 34.7532L135.684 34.8603L135.745 34.9663L146.175 29.032ZM146.175 62.824L135.789 56.8116L135.75 56.8803L135.711 56.9496L146.175 62.824ZM134.655 74.216L140.451 84.7229L140.451 84.7229L134.655 74.216ZM98.6865 78.312V66.312H86.6865V78.312H98.6865ZM96.7665 111.08L88.2812 102.595L88.135 102.741L87.9939 102.892L96.7665 111.08ZM98.6865 66.024H86.6865V78.024H98.6865V66.024ZM127.999 63.464L122.045 53.0451L122.045 53.0451L127.999 63.464ZM135.039 56.424L145.457 62.3777L145.457 62.3777L135.039 56.424ZM135.039 35.432L124.482 41.1382L124.515 41.1992L124.549 41.2597L135.039 35.432ZM98.6865 25.32V13.32H86.6865V25.32H98.6865ZM92.0305 101C92.4792 101 93.1646 101.082 93.947 101.399C94.7381 101.72 95.3562 102.171 95.7798 102.595L78.8092 119.565C82.4312 123.187 87.1024 125 92.0305 125V101ZM95.7798 102.595C96.2034 103.018 96.6547 103.636 96.9754 104.428C97.2926 105.21 97.3745 105.895 97.3745 106.344H73.3745C73.3745 111.272 75.1873 115.943 78.8092 119.565L95.7798 102.595ZM97.3745 106.344V19.688H73.3745V106.344H97.3745ZM97.3745 19.688C97.3745 20.0194 97.3175 20.6967 96.9754 21.5405C96.621 22.4147 96.082 23.165 95.4823 23.7247L79.1067 6.17933C75.0881 9.92999 73.3745 14.8437 73.3745 19.688H97.3745ZM95.7798 23.4373C95.3562 23.8609 94.7381 24.3121 93.947 24.6329C93.1646 24.9501 92.4792 25.032 92.0305 25.032V1.032C87.1024 1.032 82.4312 2.84476 78.8092 6.46671L95.7798 23.4373ZM92.0305 25.032H117.631V1.032H92.0305V25.032ZM117.631 25.032C122.213 25.032 125.795 26.0216 128.72 27.686L140.589 6.82603C133.615 2.8584 125.848 1.032 117.631 1.032V25.032ZM128.72 27.686C131.71 29.3871 133.957 31.6759 135.626 34.7532L156.723 23.3108C152.931 16.3187 147.498 10.7569 140.589 6.82603L128.72 27.686ZM135.745 34.9663C137.396 37.868 138.399 41.4859 138.399 46.184H162.399C162.399 37.9115 160.586 30.0947 156.604 23.0977L135.745 34.9663ZM138.399 46.184C138.399 50.5366 137.436 53.9676 135.789 56.8116L156.56 68.8364C160.545 61.9524 162.399 54.2901 162.399 46.184H138.399ZM135.711 56.9496C134.089 59.8376 131.878 62.0427 128.858 63.7091L140.451 84.7229C147.33 80.928 152.798 75.5384 156.638 68.6984L135.711 56.9496ZM128.858 63.7091C125.907 65.3368 122.275 66.312 117.631 66.312V90.312C125.786 90.312 133.503 88.5565 140.451 84.7229L128.858 63.7091ZM117.631 66.312H98.6865V90.312H117.631V66.312ZM86.6865 78.312V106.344H110.687V78.312H86.6865ZM86.6865 106.344C86.6865 105.895 86.7685 105.21 87.0857 104.428C87.4064 103.636 87.8576 103.018 88.2812 102.595L105.252 119.565C108.874 115.943 110.687 111.272 110.687 106.344H86.6865ZM87.9939 102.892C88.5535 102.293 89.3038 101.754 90.1781 101.399C91.0218 101.057 91.6991 101 92.0305 101V125C96.8749 125 101.789 123.286 105.539 119.268L87.9939 102.892ZM98.6865 78.024H117.631V54.024H98.6865V78.024ZM117.631 78.024C123.345 78.024 128.909 76.7647 133.952 73.8829L122.045 53.0451C121.115 53.5766 119.767 54.024 117.631 54.024V78.024ZM133.952 73.8829C138.799 71.1132 142.688 67.2247 145.457 62.3777L124.62 50.4703C123.976 51.5966 123.171 52.4015 122.045 53.0451L133.952 73.8829ZM145.457 62.3777C148.317 57.3738 149.599 51.8641 149.599 46.184H125.599C125.599 48.1839 125.174 49.5008 124.62 50.4703L145.457 62.3777ZM149.599 46.184C149.599 40.3885 148.378 34.7342 145.528 29.6043L124.549 41.2597C125.112 42.2738 125.599 43.7875 125.599 46.184H149.599ZM145.595 29.7258C142.898 24.7356 139.063 20.6522 134.172 17.7181L121.825 38.2979C122.908 38.9478 123.766 39.8137 124.482 41.1382L145.595 29.7258ZM134.172 17.7181C129.092 14.6701 123.448 13.32 117.631 13.32V37.32C119.664 37.32 120.931 37.7619 121.825 38.2979L134.172 17.7181ZM117.631 13.32H98.6865V37.32H117.631V13.32ZM86.6865 25.32V66.024H110.687V25.32H86.6865Z" fill="#053D8A" mask="url(#path-1-outside-1_1_7)"/>
</svg>
